<svg id="Layer_1" data-name="Layer 1" xmlns="http://www.w3.org/2000/svg" xmlns:xlink="http://www.w3.org/1999/xlink" viewBox="0 0 600 600"><defs><style>.cls-1,.cls-10,.cls-2{fill:#fdc812;}.cls-1{opacity:0.2;}.cls-1,.cls-10,.cls-5{isolation:isolate;}.cls-3{fill:url(#linear-gradient);}.cls-4{fill:#4b4b4b;}.cls-5{opacity:0.1;}.cls-6{fill:#ae6e79;}.cls-7{fill:#4c4981;}.cls-8{fill:#444053;}.cls-9{fill:#fff;}.cls-10{opacity:0.5;}</style><linearGradient id="linear-gradient" x1="514.72" y1="643.2" x2="514.72" y2="923.25" gradientTransform="matrix(1, 0, 0, -1, -98.04, 1190.39)" gradientUnits="userSpaceOnUse"><stop offset="0" stop-color="gray" stop-opacity="0.25"/><stop offset="0.54" stop-color="gray" stop-opacity="0.12"/><stop offset="1" stop-color="gray" stop-opacity="0.1"/></linearGradient></defs><title>questions-icon</title><ellipse class="cls-1" cx="426.44" cy="544.02" rx="61.3" ry="6.04"/><path class="cls-1" d="M262.7,57.26c27-10,59.86-1.41,87.93,11.18C438.78,108,503,183,554,259.52c18.48,27.69,36,56.6,43,87.51,14.14,62.92-22.74,128.05-85.47,150.88-21.33,7.77-44.76,10.95-68.24,12.73-41.73,3.16-84.94,1.9-126.34-9.8-29.53-8.37-57.46-21.83-84.25-36.7C157.88,422.59,89.56,368.63,40.36,302.72,18.79,273.81.54,241.22,0,207.86S21.22,141,57,135.31c14.78-2.34,30.42.1,45.68,2.61,22.47,3.7,45.24,7.59,67.45,6,22.95-1.68,52.79-10.65,57-32.55C231.52,87.83,235.73,67.28,262.7,57.26Z"/><path class="cls-2" d="M145.84,509.44s28.85-1.74,25.45,18.48a4.93,4.93,0,0,1-2.57,5.19s-.05-1.5-3-1a12.61,12.61,0,0,1-3.13.15,6.48,6.48,0,0,1-3.83-1.58h0s-8.11-3.35-11.26-16.6c0,0-2.34-2.89-2.24-3.64l4.86,2.08s-1.66,3.52-.35,6.43c0,0,.16-6.3,1.1-6.15.18,0,2.52,1.19,2.52,1.19s-2.86,6.12-.7,10.56c0,0-.82-7.53,1.59-10.12l3.43,2s-3.34,6.31-1.07,11.47c0,0-.6-7.91,1.79-11l3.11,2.39s-3.14,6.23-1.23,10.51c0,0,.25-9.21,1.9-9.9,0,0,2.72,2.39,3.13,3.38,0,0-2.15,4.52-.82,6.9,0,0,.82-6.13,1.5-6.16,0,0,2.7,4.06,3,6.85a14.8,14.8,0,0,0-2.34-7.24,8.16,8.16,0,0,1,4.15,2.15s-.43-2.88-4.82-3.13c0,0-2.23-3.08-2.83-3.27,0,0,4.36-.36,7,.81,0,0-2.33-2.71-7.82-1.48l-3.06-2.5s5.75-.79,8.19.09c0,0-2.81-2.39-9-.65l-3.33-2s4.9-1.06,7.82-.68c0,0-3.08-1.66-8.8.14l-2.39-1.07s3.58-.7,4.64-.82,1.11-.4,1.11-.4a12.46,12.46,0,0,0-6.75.75S145.75,509.79,145.84,509.44Z"/><ellipse class="cls-1" cx="165.71" cy="534.87" rx="20.42" ry="3.45"/><path class="cls-2" d="M107.2,495.84s16.27-1,14.35,10.42a2.77,2.77,0,0,1-1.44,2.93s0-.84-1.67-.55a8,8,0,0,1-1.76.08,3.65,3.65,0,0,1-2.17-.89h0s-4.56-1.9-6.36-9.37c0,0-1.31-1.63-1.26-2l2.75,1.2a5,5,0,0,0-.21,3.63s.09-3.56.6-3.48c.11,0,1.43.69,1.43.69s-1.62,3.45-.4,6c0,0-.46-4.25.9-5.71l1.93,1.13s-1.88,3.59-.6,6.47c0,0-.33-4.46,1-6.2l1.75,1.37s-1.79,3.51-.68,5.92c0,0,.14-5.19,1.07-5.58a10.66,10.66,0,0,1,1.76,1.9s-1.19,2.55-.46,3.9c0,0,.46-3.46.84-3.48a11.32,11.32,0,0,1,1.68,3.86,8.34,8.34,0,0,0-1.31-4.08,4.51,4.51,0,0,1,2.33,1.2s-.23-1.62-2.71-1.77a10.64,10.64,0,0,0-1.59-1.84,9.88,9.88,0,0,1,4,.46s-1.31-1.53-4.41-.84l-1.73-1.41s3.25-.44,4.62,0c0,0-1.58-1.35-5.08-.37l-1.88-1.13a17.2,17.2,0,0,1,4.41-.37s-1.74-.94-5,.07l-1.35-.59s2-.4,2.62-.46.63-.23.63-.23a7.07,7.07,0,0,0-3.81.42A15.86,15.86,0,0,1,107.2,495.84Z"/><ellipse class="cls-1" cx="118.4" cy="510.18" rx="11.51" ry="1.95"/><path class="cls-2" d="M507.3,506.8s19.63-1.2,17.33,12.55a3.37,3.37,0,0,1-1.75,3.54s0-1-2-.68a9,9,0,0,1-2.13.11,4.42,4.42,0,0,1-2.61-1.08h0s-5.52-2.28-7.67-11.3c0,0-1.59-2-1.52-2.47l3.31,1.41a6,6,0,0,0-.24,4.38s.11-4.29.74-4.18c.13,0,1.72.82,1.72.82s-2,4.19-.48,7.17c0,0-.55-5.12,1.09-6.88l2.33,1.36s-2.27,4.3-.73,7.81c0,0-.4-5.38,1.2-7.48l2.11,1.65s-2.14,4.24-.83,7.17c0,0,.17-6.26,1.29-6.74a12.81,12.81,0,0,1,2.13,2.3s-1.46,3.08-.55,4.71c0,0,.55-4.19,1-4.19,0,0,1.84,2.77,2,4.66a9.91,9.91,0,0,0-1.58-4.92,5.56,5.56,0,0,1,2.82,1.46s-.28-2-3.28-2.13a12.76,12.76,0,0,0-1.92-2.22,11.91,11.91,0,0,1,4.78.55s-1.59-1.85-5.33-1l-2.08-1.7s3.91-.54,5.57,0c0,0-1.91-1.63-6.14-.44l-2.27-1.36a21.08,21.08,0,0,1,5.33-.46s-2.1-1.13-6,.1l-1.62-.73s2.44-.48,3.16-.56.75-.27.75-.27a8.47,8.47,0,0,0-4.59.51S507.24,507,507.3,506.8Z"/><ellipse class="cls-1" cx="520.82" cy="524.12" rx="13.9" ry="2.35"/><path class="cls-3" d="M487.73,361.7a43.8,43.8,0,0,1-.65-6.37c0-2.56-3.48-4.83-3.48-4.83s-2.15-5-3.59-5.72-5.86-7.25-5.86-7.25a5.93,5.93,0,0,0-1.33-3.51,51,51,0,0,1-3.63-5.48h0c-.6-.73-.3-1.24-1.2-5.49-.05-.22-.1-.44-.16-.64a.68.68,0,0,0-.1-.27,7.17,7.17,0,0,0,1.69-7.43,3,3,0,0,0-.85-1.32c-1-.82-2.62-.48-3.66-1.27l1.1-4.89c.27-1.19.4-2.7-.64-3.35a5.92,5.92,0,0,0-1.23-.41c-1.8-.6-2.84-2.49-3.3-4.32a14.71,14.71,0,0,1-.36-5.37c.2-1.74.71-3.42.9-5.16a14.18,14.18,0,0,0-2.2-9.17,7.09,7.09,0,0,0-2.9-2.74c-1.1-.49-2.39-.6-3.42-1.19-2.22-1.42-2.11-4.79-3.89-6.72s-4.91-1.92-7.5-1.26-5.17,1.8-7.82,1.52c-1.71-.2-3.31-1-5-1.15a5.18,5.18,0,0,0-1.47.06v-.05a3.2,3.2,0,0,0-2.73,2.13,3.25,3.25,0,0,0-.08.88c0,.7.17,1.42.18,2.09a2,2,0,0,1-.49,1.48c-.34.36-.84.56-1.19.93a1.51,1.51,0,0,0-.44,1.1c0,1.07,1.33,2,2.22,2.43h0c-.23.24-.47.49-.69.75a15.69,15.69,0,0,0-4,10.46,16,16,0,0,0,9.71,14.57l-.13.39a22.79,22.79,0,0,1-.88,2.25,4.5,4.5,0,0,0-3.75.42c-1.71,1.2-5.05,1.1-5.94.88s-10.16-1.39-10.91-1.1-2.22-1-3.19.74-1.41,2.7-2.39,3.15-2.67,1.83-2.44,2.12-2.45,2.05-2.45,2.05-2.3,2.39-3.64,2.71a21.07,21.07,0,0,0-4.15,2.12L386.57,323s-2.44.37-1.7-1.31-1.34-3.81-1.34-3.81-4.16-8.42-4.16-10.16-3.41-9.16-3.41-9.16l-.42,0-.19-.54c-.63-1.77-1.44-3.93-2.06-5.2-1.2-2.42-1.93-2.67-1.93-2.67s-14.39-10.8-23.74-7.51,17.06,13.11,19.44,14.13c.83.36,1.42,1.52,1.84,2.88a12.37,12.37,0,0,0-5.11,4.59s5.72,12.67,5.87,15.82S373.59,332,373.59,332s1.41,6.52,9.05,6.15c0,0,10.54,1.94,12.84,0s4.37-3.45,5.49-3.67A4.31,4.31,0,0,0,403,333s-3.48,22-5.19,23.87-16.81,26.57-11.39,31a108.32,108.32,0,0,0,13.57,9c.46.22,1.84-2.08,3.81-3.71v1.27c0,8.78,1.2,22.12,2.8,25.11,2.39,4.39,1.41,12.88,1.41,12.88a10.32,10.32,0,0,0,4,1c.07.28.16.59.23.89,1.31,4.94,3.44,12.59,4.52,14.62,1.63,3.08,2.81,12.82,2.81,12.82s1,9.56.6,10.91c-.14.51.48,4.49,1.47,9.56h0c-.6,6.87-1.73,20.11-1.92,24.9h0v.8h0a4.52,4.52,0,0,0,0,.9,2.86,2.86,0,0,1-.1,1.36,23.09,23.09,0,0,1-1.61,3.84,17.21,17.21,0,0,0-.71,1.85,3.34,3.34,0,0,0-1.74,2.46c-.74,2.86-1.85,10.76-1.85,10.76s-.45,4.84-1.33,5.94-1.8,8,4.52,8.85,9-3.34,9-3.34l-.22-19.18v0a2.85,2.85,0,0,0,.33-.52v0c0-.09.09-.18.13-.29l.05-.15.1-.23a.11.11,0,0,1,0-.08,12.71,12.71,0,0,0,.54-5.71v-.81a2.66,2.66,0,0,1,0-.39c0-.21,0,0,0-.07l0-.24v-.1a.43.43,0,0,1,.05-.24.06.06,0,0,1,0-.06c.06-.27.13-.59.2-.86v-.06l.09-.29h0c.09-.31.2-.6.3-.92v-.06a.94.94,0,0,1,.1-.28v0l.33-.85,0-.07.1-.24,0-.07.23-.54h0l1.75,5.41s1,4,.45,5,.59,4.91,1.33,5l-.69,5a76.35,76.35,0,0,0-.66,8.28c-.05.31-.1.59-.13.79-.48,2.55.67,6.5.67,6.5,5.85,6.93,12.83.54,12.83.54s.82-3.66,0-4.39-.44-3.37-.44-3.37.37-6.52.44-11.28-3.89-9-3.89-9l-.22.2c-.73-1.86-1.55-4-1.38-5,.3-1.69-.82-19.48-.82-19.48a105.72,105.72,0,0,0,.27-14.35h0l.27-2.39c.45-3.82.81-7.09,1-8.81h0v-.2c0-.46,0-.79,0-.94,0-.6,0-1.28.06-2,.14-2.06.46-4.34.46-4.34l1.56-9.45a29.31,29.31,0,0,1,2.9-7.18l.2-.32h0c.07-.11.13-.24.2-.37l0-.05.21-.4,0-.05c.24-.47.49-1,.76-1.62,0,0,0-.08.06-.13l.2-.46a.48.48,0,0,1,.08-.18c0-.06.13-.3.19-.45a1.08,1.08,0,0,0,.08-.19c.08-.17.16-.36.24-.55l.11-.28.18-.41.14-.36c0-.09.08-.18.11-.27l.17-.41a.73.73,0,0,1,.07-.19c.43-1.06.83-2.1,1.2-3.05h0c.11-.3.23-.6.33-.86,3.8.23,6.38.44,6.38.44s1.2-8.57.81-14.2a53,53,0,0,1,.94-11.36c.06-.29.1-.56.15-.79l.1.08c1.86,1.46,3.19-3.37,3.19-3.37s-.5-4.51-1.19-10l-.07-.55a27.26,27.26,0,0,0,3.24.5s.6-.05,1.42-.16a37.92,37.92,0,0,0,7.14,3.23l3.95-7.29a29.12,29.12,0,0,1,2.6-4.32c1.19-1.47,5.41-6.15,5.34-7a24.81,24.81,0,0,1,2.89-8.21A18,18,0,0,0,487.73,361.7Zm-16.47,5.57c-1.56.65-3,4.32-3.11,5.42s-1.71,5.93-3.41,6.51-4.58,3.3-5.06,3.74c-.49,0-1,.11-1.62.21-.65-4.62-1.3-8.45-1.71-9.22-1.2-2.2,1.31-9.23,1.31-9.23s.24-7.1,1.79-8.78,1.2-5.94,1.2-5.94.37-1.76.52-2.56,2.2,0,2.22,0h0s4,2.2,4.6,5.49,5,9,5,9-.67,2,0,3S472.82,366.61,471.26,367.27Z"/><path class="cls-4" d="M364,304.68a12,12,0,0,1,12-5.63v8.56h-5.19l-4.06-1Z"/><path class="cls-5" d="M364,304.68a12,12,0,0,1,12-5.63v8.56h-5.19l-4.06-1Z"/><path class="cls-6" d="M376.3,301.32l-6.36,4.46s-.06-.89-.22-2.11c-.31-2.31-1-5.77-2.56-6.44-2.34-1-28.36-10.82-19.13-14.11s23.39,7.5,23.39,7.5.73.25,1.89,2.66c.6,1.27,1.42,3.42,2,5.19C375.91,300.06,376.3,301.32,376.3,301.32Z"/><polygon class="cls-7" points="427.15 308.19 427.88 307.85 429.91 310.16 428.25 313.71 425.41 312.57 426.07 309.74 427.15 308.19"/><path class="cls-8" d="M417.52,515.77s-1.82-.22-2.55,2.63-1.83,10.76-1.83,10.76-.44,4.82-1.32,5.92-1.75,8,4.46,8.84,8.92-3.34,8.92-3.34L425,521.41Z"/><path class="cls-8" d="M439.2,516.63s3.91,4.18,3.83,8.93-.44,11.25-.44,11.25-.36,2.64.44,3.36,0,4.39,0,4.39-6.87,6.38-12.64-.54c0,0-1.13-3.95-.66-6.49s1.77-14,1.77-14Z"/><path class="cls-6" d="M448.88,429.23s-3.95,11-5.63,13.59A29.19,29.19,0,0,0,440.4,450l-1.53,9.43a54,54,0,0,0-.52,6.36c.08,2.12-3.8,33-3.8,33l-6.14,7.82s-2.7,5.48-2.26,7.77-.29,5.93-1.2,7c0,0-.14,7.17-.36,8.77s.81,6.14,0,6.94-11.55.44-11.84-.88,1.31-7.67,1.31-7.67l.95-6.14s1.91-3.36,1.47-4.46.8-3.65.87-3.87,2-3.8,1.69-5.19,2.3-30.87,2.3-30.87l7.52-52.84Z"/><path class="cls-5" d="M448.88,429.23s-.6,1.66-1.42,3.84c-1.3,3.44-3.18,8.18-4.21,9.75A29.63,29.63,0,0,0,440.4,450l-1.54,9.43a54.15,54.15,0,0,0-.51,6.36c0,.84-.56,6.18-1.28,12.33-1.1,9.4-2.52,20.71-2.52,20.71l-6.14,7.82s-.31.6-.69,1.54c-.78,1.79-1.86,4.7-1.57,6.2.44,2.27-.29,5.92-1.2,7,0,0-.15,7.17-.36,8.77s.81,6.14,0,6.94-11.55.45-11.84-.87,1.31-7.67,1.31-7.67l.95-6.15s1.91-3.36,1.46-4.46.81-3.65.88-3.87,2-3.8,1.69-5.19c-.28-1,1.19-18.37,1.88-26.58l.38-4.26,6.47-45.46.53-3.67.53-3.71Z"/><path class="cls-6" d="M442.3,539.15c.07.8-10.31,2-11.79,1.1s0-11.77,0-11.77l.68-5c-.73-.08-1.83-4-1.32-5s-.43-5-.43-5l-1.72-5.38-1.06-3.29c-1.71-3.77-4.18-14.53-5.72-22.56-1-5-1.58-9-1.44-9.53.36-1.31-.6-10.89-.6-10.89s-1.2-9.72-2.77-12.79c-1.07-2-3.16-9.66-4.45-14.59-.66-2.53-1.11-4.34-1.11-4.34s11-.93,17.74-1.25c3.08-.15,5.24-.17,5,.08s-.31,1.59-.3,3.53c0,5,.73,13.83,1.47,16.21,1,3.28,2,13.14,1.61,14.1s-.3,7.31-.3,7.31a32.36,32.36,0,0,1,1.29,7.93,106.35,106.35,0,0,1-.25,14.28s1.1,17.76.8,19.44,2.34,6.95,2.34,8,.73,8,.73,8S442.26,538.35,442.3,539.15Z"/><path class="cls-6" d="M448.07,325.66,446.82,327l-.82.89L441.22,333l-12.36,1.39-6.57-1.76-1.63-.43s0-3.3.3-7.26c.41-5.07,1.41-11.24,3.8-12.92a9.57,9.57,0,0,0,2.78-3.52,20.44,20.44,0,0,0,1.19-3c0-.13.08-.26.13-.39a34.39,34.39,0,0,0,1.16-5.42s1.57-.87,3.77-1.89c5.72-2.67,15.6-6.36,12.16,1.89a32.56,32.56,0,0,0-1.29,3.71c-.05.18-.1.37-.14.55-1.15,4.59-.39,7.37.46,8.91h0a6.22,6.22,0,0,0,.5.76,3.89,3.89,0,0,0,.83.84l1.42,9,.12.75Z"/><path class="cls-5" d="M446,300.22c-.66,1.57.31-1.27,0,0-2.61,1.86-8.75,7.13-12.2,7.13-2.33,0-3-.42-5-1.32a32.93,32.93,0,0,0,1.28-5.81S450.71,288.82,446,300.22Z"/><path class="cls-6" d="M451.22,290.62A15.93,15.93,0,0,1,437,306.46a15.43,15.43,0,0,1-1.67.09,15.93,15.93,0,1,1,15.93-15.93Z"/><path class="cls-5" d="M453.49,361.25l-2.27,5.93-4.73.16c-9.73.31-31.15.71-32.11-1.79a6.26,6.26,0,0,1-.33-2c-.13-3.8,1.65-9.65,1.65-9.65s1-11.69,1-12.2-.88-8.71-.88-8.71l1.76-6.57,4.89-3.44s2.19,3.37,3.51,3.66a9.06,9.06,0,0,1,3.07,1.9s4.31,2.63,5.7,1.17,12.21-7.9,12.21-7.9l5.7,6.29Z"/><path class="cls-9" d="M453.49,362.16l-2.27,5.92s-1.85.08-4.73.17h-.28c-1.25,0-2.67.09-4.19.12-7.72.17-18.37.22-23.93-.6-2.1-.3-3.46-.73-3.69-1.32a4.48,4.48,0,0,1-.26-1.08c0-.28-.06-.6-.08-.88-.12-3.81,1.65-9.66,1.65-9.66s1-11.69,1-12.2-.88-8.7-.88-8.7l1.75-6.58L421,325l1.53-1.08a21.08,21.08,0,0,0,1.68,2.21,4.38,4.38,0,0,0,1.83,1.44,9.25,9.25,0,0,1,3.07,1.91s4.31,2.63,5.7,1.17c1.06-1.12,7.63-5.14,10.67-7,.93-.57,1.54-.92,1.54-.92l.76.85L452.7,329Z"/><path class="cls-5" d="M376.3,301.32l-6.36,4.46s-.06-.89-.22-2.11a12.87,12.87,0,0,0,5.61-5.2C375.91,300.06,376.3,301.32,376.3,301.32Z"/><path class="cls-4" d="M398.67,316.45l-1.39-.37s-2.27,2.39-3.58,2.71a20.5,20.5,0,0,0-4.09,2.11l-3.22,2.56s-2.4.37-1.68-1.31-1.32-3.8-1.32-3.8-4.09-8.41-4.09-10.16-3.39-9.14-3.39-9.14-4.24,8.26-12,5.63c0,0,5.63,12.64,5.78,15.79s3.87,11.91,3.87,11.91,1.39,6.51,8.92,6.14c0,0,10.38,1.93,12.65,0s4.3-3.45,5.37-3.67a4.46,4.46,0,0,0,2.05-1.45v-8.69Z"/><path class="cls-5" d="M385.66,324.71s1.83,6.8.65,7.53Z"/><path class="cls-5" d="M446.49,368.22c-9.73.31-31.15.7-32.11-1.79a6.26,6.26,0,0,1-.33-2l31.76,1.68Z"/><path class="cls-5" d="M448.88,429.23s-.6,1.66-1.42,3.84c-4-.24-9.38-.5-14.45-.54-1.79,0-3.55,0-5.21.06a39.33,39.33,0,0,0-8.52,1,22.91,22.91,0,0,1-7.59,1c-.66-2.53-1.11-4.35-1.11-4.35s11-.92,17.74-1.25l.53-3.71Z"/><path class="cls-8" d="M457.43,402.48l-1.24,2.63s-.17.78-.4,2a52.55,52.55,0,0,0-.92,11.36,89.36,89.36,0,0,1-.8,14.17s-26.9-2.26-34.79,0-11.77,0-11.77,0,.95-8.47-1.39-12.86c-1.59-3-2.72-16.33-2.75-25.1,0-4.05.2-7.11.71-7.73,1.6-2,8.47-21.71,8.47-21.71l1.57.08,4.18.22,23.79,1.26,3.73.19.4,1.2Z"/><path class="cls-4" d="M469.27,393.7l.22,2.34s-11.78-3.83-11.18-8.55,0-4.18,0-4.18l9.47.8Z"/><path class="cls-5" d="M469.27,393.7l.22,2.34s-11.78-3.83-11.18-8.55,0-4.18,0-4.18l9.47.8Z"/><path class="cls-5" d="M393.52,326.59a10.42,10.42,0,0,0,4.14,2.16,2.59,2.59,0,0,1-1.19-.6c-.84-.59-1.65-1.25-2.46-1.88a7.79,7.79,0,0,0-2.28-1.58A12.39,12.39,0,0,0,393.52,326.59Z"/><path class="cls-5" d="M393.7,329.67a5.53,5.53,0,0,1,.9,1.44,8.7,8.7,0,0,1-.06,4.53l-1.89-4.56c-.33-.77-.66-1.55-1-2.29-.18-.32-1.26-1.64-1.14-1.92C390.8,326.1,393.34,329.24,393.7,329.67Z"/><path class="cls-5" d="M446.39,354.89a6.11,6.11,0,0,0,3.44-1.6c-1.94.24-3.78,1-5.7,1.41a8.47,8.47,0,0,1-5.3-.49A13,13,0,0,0,446.39,354.89Z"/><path class="cls-5" d="M440.9,341.51a1.35,1.35,0,0,1-1-.24q-2.18-1.26-4.31-2.62a28.36,28.36,0,0,1-4.23-2.92C434.27,338.35,437,340.56,440.9,341.51Z"/><path class="cls-5" d="M445,357a9.25,9.25,0,0,0,2.29-.19,3.1,3.1,0,0,0,1.87-1.23,1.09,1.09,0,0,0-.79.12,13.37,13.37,0,0,1-7.34.88A10.62,10.62,0,0,0,445,357Z"/><path class="cls-5" d="M431.11,391a24,24,0,0,1-4.67.92,28.42,28.42,0,0,1-3.69-.08l-6-.37-3-.19c-.35,0-1.79,0-1.08-.71.36-.35,2.36-.13,2.87-.15,1,0,2-.05,3-.05,2,0,4,0,5.94.12C426.72,390.55,428.9,390.71,431.11,391Z"/><path class="cls-5" d="M424.18,393.91a24.91,24.91,0,0,0-3.37.69,21.82,21.82,0,0,1-3.52.14,19.38,19.38,0,0,1-6.8-1.39C415.05,393.59,419.62,393.73,424.18,393.91Z"/><path class="cls-5" d="M411.38,397a9.61,9.61,0,0,1,1.3.36c2.53.72,5.21.08,7.77-.55a4.55,4.55,0,0,1-2.94,1.64,13.73,13.73,0,0,1-5.74.21c-.6-.12-2.1-.34-2.39-1C408.89,396.83,410.82,397,411.38,397Z"/><path class="cls-5" d="M425.52,401.76a17.63,17.63,0,0,1,2.24.6c2.84.7,5.78-.27,8.63-.92a40.4,40.4,0,0,1,10.46-1,10,10,0,0,0-2.24.74c-.81.24-1.63.47-2.45.67a47.77,47.77,0,0,1-4.88.95,50.22,50.22,0,0,1-10,.44c-1.53-.08-4.18.07-5.49-.7A6,6,0,0,1,425.52,401.76Z"/><path class="cls-5" d="M426.59,311.62s.14,6.73-.95,9.8c-.35.95-.88,2.72-1.47,4.7-.64,2.19-1.34,4.65-1.88,6.57l-.89,3.22s-2.47,20.1-3.11,29.68a2.07,2.07,0,0,1,0,.5q0,.81-.18,1.68c-1.42,9.52-9.63,24.19-12.39,25.36a8.38,8.38,0,0,0-2.31,1.6c0-4.05.2-7.11.71-7.73,1.6-2,8.47-21.71,8.47-21.71l1.57.08a8.47,8.47,0,0,1-.07-.88c-.13-3.8,1.65-9.65,1.65-9.65s1-11.7,1-12.2-.88-8.71-.88-8.71l1.76-6.57L421,325c.42-5.07,1.42-11.23,3.8-12.91a9.45,9.45,0,0,0,2.78-3.52c.47.06-.39-.35-.39-.35Z"/><path class="cls-4" d="M427.88,307.84a4.38,4.38,0,0,0-3.7.42c-1.69,1.2-5,1.1-5.85.88s-10-1.39-10.76-1.1-2.2-1-3.15.74-1.38,2.7-2.33,3.13-2.64,1.83-2.39,2.13-2.39,2-2.39,2l5.33,17.33s-3.44,21.93-5.12,23.83-16.59,26.53-11.25,30.91a105.4,105.4,0,0,0,13.37,9c.6.29,2.7-3.65,5.63-4.89s12-17.7,12.55-27.05S421,335,421,335s3.15-11.41,4.24-14.48.95-9.8.95-9.8Z"/><path class="cls-5" d="M457.43,402.48l-1.24,2.63s-.17.78-.4,2a1.07,1.07,0,0,1-.59-.27c-1.83-1.46-12.55-12.5-13.09-22.29-.37-7.23-.19-13.45-.07-16.23,0-.87.07-1.4.07-1.51h0s8.33-10.09,7.38-13.66-3.15-22.72-3.15-22.72l-.32-2.51-.55-4.24-1.33-10.27,1.37.33a4.4,4.4,0,0,0,.83.84l1.43,9,4.93,5.44.81,33.11-2.27,5.92s-1.85.08-4.73.17h-.28Z"/><path class="cls-4" d="M462,347.82s-2-.81-2.18,0-.52,2.55-.52,2.55.37,4.24-1.19,5.92-1.8,8.77-1.8,8.77-2.46,7-1.29,9.21c.42.8,1.08,4.78,1.74,9.56.41,3,.83,6.27,1.19,9.27.66,5.45,1.16,10,1.16,10s-1.32,4.82-3.15,3.36-12.55-12.5-13.08-22.3c-.35-6.88-.21-12.85-.09-15.8.05-1.25.09-1.95.09-1.95s8.34-10.09,7.39-13.67S447.15,330,447.15,330l-.38-2.95-.41-3.18-.1-.7L444.94,313h0c.23.05,8.43,1.9,9.52,3s7.77,2.63,7.77,2.63a5.84,5.84,0,0,1,4.14,4.26,4.28,4.28,0,0,1,.16.64c.88,4.24.6,4.75,1.2,5.49S462,347.82,462,347.82Z"/><path class="cls-5" d="M458,393.1c-3-.6-7.42-2-7.32-5,.09-2.85,3.52-3.88,6.12-4.24C457.25,386.8,457.66,390.1,458,393.1Z"/><path class="cls-6" d="M467.3,391.58c-.12.26-.6.48-1.28.67a33.28,33.28,0,0,1-4.86.8s-10.16-.81-10-5.42c.11-3.3,4.7-4.18,7.28-4.38.57-.05,1.14-.07,1.71-.07C460.13,383.18,467.74,390.64,467.3,391.58Z"/><path class="cls-5" d="M467.3,391.58c-.12.26-.6.48-1.28.67-2.65-3.54-6.34-8.09-8.15-8.49l.55-.51c.57-.05,1.14-.07,1.71-.07C460.13,383.18,467.74,390.64,467.3,391.58Z"/><path class="cls-4" d="M464.74,328.51l3,.44a52.15,52.15,0,0,0,3.59,5.48,6,6,0,0,1,1.31,3.51s4.39,6.5,5.77,7.23,3.51,5.7,3.51,5.7,3.44,2.27,3.44,4.82a42.33,42.33,0,0,0,.66,6.36c.07.37-.51,4.91-2,7.18a24.78,24.78,0,0,0-2.85,8.17c.08.9-4.09,5.56-5.26,7a30.14,30.14,0,0,0-2.55,4.31L469.49,396S461.3,384,458.31,383.33c0,0,3.36-3.22,5-3.81s3.29-5.37,3.36-6.5,1.54-4.75,3.07-5.38,2.34-1.31,1.69-2.34,0-3,0-3-4.32-5.7-4.91-9-4.53-5.48-4.53-5.48l-2.26-5.56Z"/><path class="cls-5" d="M475.61,355.79a9.48,9.48,0,0,1,5.9-2.23,7.13,7.13,0,0,0-3.86,1.51,8.78,8.78,0,0,0-1.07,1.36c-.35.5-3.17,4.08-3.58,3.51C472.3,359.11,475.05,356.27,475.61,355.79Z"/><path class="cls-5" d="M469,352.33a2.53,2.53,0,0,0,2.09-1.48,8.57,8.57,0,0,0,.65-2.59,37.14,37.14,0,0,1,.9-4.44,2,2,0,0,0-.12-1.79,6.31,6.31,0,0,0-.65-1.33,7.9,7.9,0,0,0-.91,2.79c-.28,1-.53,2-.77,3C470.05,347,469.06,352.33,469,352.33Z"/><path class="cls-5" d="M466.4,322.82a5.53,5.53,0,0,1-1,1c-1.19.95-2.78,1.75-2.93,3.25a3.35,3.35,0,0,1-.18,1.44c-.38.66-1.32.6-2.06.48a3.56,3.56,0,0,1-1.75-.65c-.79-.67-.86-1.86-1.46-2.71a3.68,3.68,0,0,0-3-1.32c-1.11,0-2.22.22-3.34.27a9.69,9.69,0,0,1-2.15-.15,5.63,5.63,0,0,1-.69-.14,8.39,8.39,0,0,1-1.46-.5,6.51,6.51,0,0,1-.71-.33,9.53,9.53,0,0,1-2.06-1.44,5.14,5.14,0,0,1-1.92-3.88c.06-.91.47-1.75.6-2.66.45-2.58-1.26-5-3.12-6.86-.74-.74-1.53-1.45-2.27-2.2a10.85,10.85,0,0,1-2.68-3.81,11.38,11.38,0,0,1-.47-4.78,33.53,33.53,0,0,0,.13-4.91c-.55-5.81-5.51-10.27-10.47-12.69l-.22-.11a15.93,15.93,0,1,1,21.43,23.31c-.06.18-.1.37-.15.55-1.14,4.59-.38,7.37.47,8.91h0c.23.05,8.43,1.91,9.52,3s7.77,2.63,7.77,2.63A5.83,5.83,0,0,1,466.4,322.82Z"/><path class="cls-8" d="M422.14,276c.33-.38.82-.57,1.16-.94,1-1.12,0-2.95.37-4.44s2.43-2.36,4.12-2.18,3.26.95,4.95,1.14c2.61.29,5.15-.85,7.7-1.51s5.64-.7,7.39,1.26,1.64,5.28,3.83,6.7c1,.65,2.28.72,3.38,1.19a7,7,0,0,1,2.85,2.73,14.33,14.33,0,0,1,2.17,9.15c-.19,1.74-.69,3.42-.89,5.16a14.93,14.93,0,0,0,.35,5.37c.46,1.8,1.46,3.73,3.25,4.31a5.58,5.58,0,0,1,1.19.41c1,.65.9,2.16.64,3.35l-1.07,4.9c1,.78,2.62.45,3.59,1.27a3,3,0,0,1,.84,1.31,7.17,7.17,0,0,1-2.15,7.85c-1.19.95-2.78,1.76-2.93,3.25a3.2,3.2,0,0,1-.18,1.44c-.37.66-1.32.6-2.06.47a3.64,3.64,0,0,1-1.75-.64c-.79-.67-.85-1.87-1.45-2.71a3.69,3.69,0,0,0-3-1.32c-1.12,0-2.23.21-3.35.27a9.92,9.92,0,0,1-7.05-2.55,5.15,5.15,0,0,1-1.92-3.88c.05-.91.47-1.76.6-2.66.44-2.58-1.27-5-3.13-6.87s-4-3.55-5-6c-1.13-3,0-6.43-.34-9.66-.55-5.82-5.5-10.26-10.47-12.69C422.74,278.85,420.85,277.41,422.14,276Z"/><path class="cls-5" d="M461.23,326.14c-.79-.68-.86-1.87-1.46-2.71a3.67,3.67,0,0,0-3-1.32c-1.13,0-2.24.21-3.36.26a9.85,9.85,0,0,1-7.07-2.55,5.13,5.13,0,0,1-1.91-3.88c.05-.91.47-1.76.6-2.66.45-2.58-1.27-5-3.13-6.87s-4-3.55-4.95-6c-1.13-3,0-6.43-.33-9.66-.56-5.82-5.51-10.26-10.47-12.69-1.16-.57-3.05-2-1.76-3.47.32-.38.82-.57,1.15-.93,1-1.12,0-3,.39-4.44a2.53,2.53,0,0,1,.37-.82,3.17,3.17,0,0,0-2.69,2.14c-.37,1.48.65,3.31-.38,4.44-.33.36-.83.55-1.16.92-1.28,1.47.6,2.91,1.76,3.48,5,2.42,9.92,6.87,10.47,12.68.3,3.24-.8,6.63.34,9.67.91,2.45,3.09,4.19,4.95,6s3.58,4.29,3.12,6.87a21.75,21.75,0,0,0-.59,2.66,5.12,5.12,0,0,0,1.92,3.88,9.86,9.86,0,0,0,7.06,2.55c1.12-.05,2.23-.3,3.35-.27a3.73,3.73,0,0,1,3,1.33c.6.84.66,2,1.45,2.7a3.48,3.48,0,0,0,1.75.64c.75.14,1.69.19,2.07-.46a1.61,1.61,0,0,0,.16-.86A3.45,3.45,0,0,1,461.23,326.14Z"/><path class="cls-2" d="M374.22,290.62H332.88V249.88h41.37Zm-.6-61.42H333.48c0-63.31,60.17-59.61,60.17-99.66a39.9,39.9,0,0,0-40.11-39.73c-22.06,0-40.11,19-40.11,40.36H273.31a80.09,80.09,0,0,1,79.95-80.23h.28c44.31,0,80.22,35.35,80.22,79.6,0,50.08-60.16,55.78-60.16,99.66Z"/><path class="cls-10" d="M168,278.49H157.37V268H168Zm-.16-15.84H157.53c0-16.32,15.51-15.37,15.51-25.7A10.29,10.29,0,0,0,162.7,226.7h0a10.56,10.56,0,0,0-10.32,10.4H142a20.69,20.69,0,0,1,41.37-.16c0,12.91-15.54,14.38-15.54,25.68Z"/><path class="cls-10" d="M248.76,351.65H238.1v-10.5h10.66Zm-.15-15.83H238.27c0-16.33,15.51-15.37,15.51-25.7a10.29,10.29,0,0,0-10.33-10.25h0a10.56,10.56,0,0,0-10.37,10.41H222.73a20.68,20.68,0,0,1,41.36-.16C264.11,323,248.61,324.51,248.61,335.82Z"/><path class="cls-10" d="M297.86,222.13h-7.73v-7.6h7.73Zm-.12-11.48h-7.49c0-11.82,11.24-11.13,11.24-18.62a7.45,7.45,0,0,0-7.49-7.42h0a7.65,7.65,0,0,0-7.5,7.54H279a15,15,0,1,1,30-.12C309,201.39,297.74,202.46,297.74,210.65Z"/><path class="cls-10" d="M429.85,232.85h-4.37v-4.3h4.37Zm-.07-6.48h-4.26c0-6.68,6.35-6.29,6.35-10.53a4.17,4.17,0,0,0-4.18-4.18h-.05a4.32,4.32,0,0,0-4.23,4.26h-4.24a8.47,8.47,0,0,1,16.94-.06C436.14,221.11,429.78,221.74,429.78,226.37Z"/><path class="cls-10" d="M496.65,428.58h-4.37v-4.31h4.37Zm-.07-6.49h-4.24c0-6.69,6.36-6.29,6.36-10.52a4.21,4.21,0,0,0-4.24-4.19,4.32,4.32,0,0,0-4.23,4.26H486a8.47,8.47,0,0,1,16.94-.06c0,5.28-6.33,5.88-6.33,10.51Z"/></svg>