<svg id="Layer_1" data-name="Layer 1" xmlns="http://www.w3.org/2000/svg" xmlns:xlink="http://www.w3.org/1999/xlink" viewBox="0 0 600 600"><defs><style>.cls-1{opacity:0.2;}.cls-2{fill:#fdc812;}.cls-3{opacity:0.5;}.cls-4{fill:none;stroke:#fff;stroke-miterlimit:10;stroke-width:0.6px;}.cls-5,.cls-9{opacity:0.1;}.cls-6{fill:url(#linear-gradient);}.cls-7{fill:#efb7b9;}.cls-8{opacity:0.03;}.cls-8,.cls-9{isolation:isolate;}.cls-10{fill:#e1e7ef;}.cls-11{fill:#444053;}.cls-12{fill:#4b4b4b;}.cls-13{fill:#e4e6ed;}.cls-14{fill:#d8d9e5;}.cls-15{fill:#585268;}</style><linearGradient id="linear-gradient" x1="378.4" y1="677.78" x2="378.4" y2="1127.03" gradientTransform="matrix(1, 0, 0, -1, -96.48, 1201)" gradientUnits="userSpaceOnUse"><stop offset="0" stop-color="gray" stop-opacity="0.25"/><stop offset="0.54" stop-color="gray" stop-opacity="0.12"/><stop offset="1" stop-color="gray" stop-opacity="0.1"/></linearGradient></defs><title>reading-icon</title><g class="cls-1"><path class="cls-2" d="M355.84,54.13c-5.55,4.57-8,11.8-10.21,18.66Q338.34,95.86,332,119.26c-6.16,22.65-11.76,45.81-23.05,66.41s-27.75,37.7-44,54.58L206.31,301c-18.12,18.78-37.44,40.47-37.09,66.56.3,22.64,16.12,42.73,35.48,54.42s42,16.47,64.14,21.07c11.25,2.34,23.18,4.63,34,.75,13-4.66,21.4-17.15,33.24-24.17,21.24-12.61,48.15-5.52,71.95,1.1s51.84,11.63,71.13-3.78c28-22.36,15.94-67.41,28.44-101,11.87-31.87,44.69-50.2,66.23-76.51,48.11-58.76,27.08-140.39-39.33-173.34-21.76-10.77-43.21-10.21-66.81-11.91C438.23,52.11,381.21,33.3,355.84,54.13Z"/></g><g class="cls-3"><path class="cls-2" d="M174.53,394.05S76.1,344.24,118.16,233,7.93,83.14,7.93,83.14-21.9,191.47,34.15,263.61,111.82,455.52,174.53,394.05Z"/><path class="cls-4" d="M7.93,83.14s41.53,72,62.48,165.55S125.49,419.54,174,392.28"/></g><g class="cls-3"><path class="cls-2" d="M153.38,412.24s-39.36-56.5,12.86-111-19-119-19-119S102.38,238.3,113.1,296.44,103.42,431.51,153.38,412.24Z"/><path class="cls-4" d="M147.28,182.23s3,54.05-10.78,115.3-16.17,116.41,17.08,113.54"/></g><g class="cls-5"><path class="cls-2" d="M37.36,501.31c.69,4.25,3.15,7.49,5.49,10.45L70.64,547c2.24,2.84,4.64,5.78,7.64,6.55,6.27,1.67,11.32-6.39,16.68-11.1,19.07-16.76,45.12,8.75,66.67-1,8.62-3.91,15.61-13.18,24.4-16.32,23.26-8.34,43,28.51,67,30.39,7.89.59,15.63-2.65,23.17-5.87l50.27-21.52c3.49-1.5,7-3,10.73-3.07,6.18-.11,11.94,3.87,17.76,6.74,23.44,11.55,49.45,5.31,73.53-3.43s48.31-20,73.19-18.14c6.48.49,15,.08,16.8-8.42,1.06-5.05-13.18.25-16.47-2.48s4.54-14.08.7-14.56c-22.36-2.8-45.14-2.88-67,4.17-11.32,3.64-22.45,9.2-34.08,10.33-12.12,1.2-24.17-2.47-36.07-5.81-30.13-8.45-60.77-14.9-91.53-13.59-54.67,2.39-108.52,29.35-162.92,21.54A138.55,138.55,0,0,1,65,486c-7.34-4-7,10.07-14.5,14.8-2.44,1.54-8.82-12.8-10.72-10A14,14,0,0,0,37.36,501.31Z"/></g><path class="cls-6" d="M506.22,433.37l-86.9-113.8c-6.78-31.95-17-31.95-17-31.95-69.25-9.31-88.25-21.3-88.25-21.3l-15.5-6.06-1.29-.76-.18-1c-.06-.36-.12-.82-.17-1.23a74.72,74.72,0,0,0,34-45.76c.13-.5.24-1,.36-1.52a19.62,19.62,0,0,0,8.1-7.22c6.65-10.9.33-24.72.47-37.42.09-8,2.86-15.91,2.55-23.93-.27-6.72-2.67-13.18-5.3-19.38-1.28-3-2.68-6.11-5.12-8.35-6.48-5.88-17-3.36-25.28-6.25-10.76-3.75-15.78-15.43-22-24.82-2.38-3.62-6.72-7.44-10.63-5.46-4.59,2.32-3.35,10.28-8,12.51-2.81,1.35-6.25-.35-8.26-2.71s-3.16-5.32-5.13-7.7A15.11,15.11,0,0,0,238,74.32a5.13,5.13,0,0,0-2.78,1.42c-1.48,1.73-.55,4.3-.45,6.56.35,7.58-8.94,11.79-16.61,12.6s-16.72.9-21.31,7c-2.44,3.24-2.95,7.45-4.59,11.13-3.8,8.54-13,13.22-21.08,18.12s-16.39,12.06-16.32,21.37c.07,8.94,8,16.18,9.35,25,.74,4.69-.41,9.53.5,14.2,1.69,8.55,9.69,14.3,17.06,19.15.5.33,1,.66,1.53,1,.13.52.26,1,.4,1.56a75,75,0,0,0,38.35,46.47c.12.5.23,1,.34,1.53.36,1.59.68,3.26,1,5l-.22.06v-.17l-85.83,21.89a3.68,3.68,0,0,0-1.61-.21c-3.52-.28-14.51,3.51-27.34,54.9L53.41,440s-31.91,30.62-7.47,56.6C58.4,509.86,72.45,513.06,83.23,513a51.52,51.52,0,0,0,18.36-3.11s-.44-.68-1.12-1.88l7.27.88c14.3,15.9,38.66,10.32,38.66,10.32s34.64-.4,35.92-18.51l62.27,19.1.25,3.4h32.7l-.06-2.17,68.8-20.72c5.36,9.91,18.47,14.82,18.47,14.82s40.37,1.69,53.06-5.66A56.82,56.82,0,0,1,435,502.87l.36,0-.09.08L513,494.58C548.31,464,506.22,433.37,506.22,433.37ZM115,460.43l-1.71-1a63.76,63.76,0,0,1,9.4-2.77L137.78,438l2.61,18.41A34.39,34.39,0,0,0,115,460.43Zm292.47-.15a31.75,31.75,0,0,0-19.58-6.4l.6-45.32c5.68,3.63,10.44,7.63,11.86,11.5,4.07,11.32,23.76,29.28,23.76,29.28l-10.23,8.4h0l-1.59,1.31-1.29.31Z"/><polygon class="cls-7" points="99.07 510.33 114.93 512.32 124.19 466.7 106.34 456.12 83.2 481.25 99.07 510.33"/><polygon class="cls-8" points="99.07 510.33 114.93 512.32 124.19 466.7 106.34 456.12 83.2 481.25 99.07 510.33"/><path class="cls-7" d="M311.91,286.22,273.57,320.6s-74,16.53-55.53-6.61c10.49-13.11,9.1-33,5.92-47.79A124.65,124.65,0,0,0,218,246.54s95.22-57.49,82-13.86c-3.92,12.95-4.46,22.93-3.3,30.55C299.5,281.32,311.91,286.22,311.91,286.22Z"/><path class="cls-9" d="M300,232.68c-3.92,12.95-4.46,22.93-3.3,30.55a74.12,74.12,0,0,1-72.76,3,124.61,124.61,0,0,0-5.91-19.66S313.26,189.05,300,232.68Z"/><path class="cls-7" d="M331.77,199a73.81,73.81,0,1,1,0-.46Z"/><polygon class="cls-10" points="206.82 294.82 206.82 430.34 337.05 419.76 315.24 281.6 257.73 315.97 206.82 294.82"/><path class="cls-9" d="M277.55,378.12l-14.49-41h.59c15.21-16.53,8.6-26.44,8.6-26.44H251.14c-13.43,9.53-4.11,21.88-.95,25.44l-6.32,42Z"/><path class="cls-11" d="M277.55,376.79l-14.49-41h.59c15.21-16.53,8.6-26.44,8.6-26.44H251.14c-13.43,9.53-4.11,21.88-.95,25.44l-6.32,42Z"/><path class="cls-9" d="M296.91,265.57s-4.17,19.33-33.23,45.11c0,0,8.94,3,10.25,26.78l10.91,14.89s8.59-31.07,23.79-41.64,0-38.34,0-38.34Z"/><path class="cls-10" d="M296.91,264.26s-4.17,19.33-33.23,45.11c0,0,8.94,3,10.25,26.78L284.84,351s8.59-31.07,23.79-41.64,0-38.35,0-38.35Z"/><path class="cls-9" d="M257.7,310.68s-12.52,9.92-13.2,25.79-7.26,15.87-7.26,15.87-16.53-50.9-21.82-55.53S225,272.65,225,272.65,233.27,300.11,257.7,310.68Z"/><path class="cls-10" d="M257.7,309.37s-12.52,9.91-13.2,25.79S237.24,351,237.24,351s-16.54-50.92-21.85-55.55,9.54-24.15,9.54-24.15S233.27,298.78,257.7,309.37Z"/><path class="cls-9" d="M296.07,264.41,312.59,271s18.52,11.92,85.94,21.16c0,0,9.92,0,16.53,31.74l84.61,113s41,30.38,6.61,60.82L430.61,506s43.63-41.64-22.47-43l12.21-10.25s-19.17-17.88-23.13-29.09-36.35-23.8-36.35-23.8l4,95.2-59.52,9.24-8.58-177.13a118,118,0,0,1,1.43-25C300.41,288.82,302.78,267.54,296.07,264.41Z"/><path class="cls-12" d="M296.73,264.41,313.26,271s18.51,11.92,85.94,21.16c0,0,9.91,0,16.52,31.74l84.61,113s41,30.38,6.61,60.82L431.27,506s43.64-41.64-22.47-43L421,452.82S401.86,435,397.9,423.74s-36.35-23.8-36.35-23.8l4,95.19L306,504.37l-8.58-177.13a116.74,116.74,0,0,1,1.43-25C301.07,288.82,303.44,267.54,296.73,264.41Z"/><path class="cls-9" d="M225.33,271l-84,21.84s-12.56-7.93-27.77,54.22L60.07,443.6S29,474,52.8,499.79,106.36,513,106.36,513s-27.1-42.3,20.5-52.88l17.87-22.48,80.65,9.26-2-116.35L225.61,317a134.84,134.84,0,0,0,0-44.28Z"/><path class="cls-12" d="M224.67,271l-84,21.84s-12.56-7.93-27.76,54.22L59.4,443.6S28.31,474,52.14,499.75,105.69,513,105.69,513s-27.11-42.3,20.49-52.88l17.88-22.48,80.65,9.26-2-116.35L224.93,317a134.84,134.84,0,0,0,0-44.28Z"/><polygon class="cls-13" points="142.04 335.81 134.1 341.75 253.76 372.16 253.76 360.27 142.04 335.81"/><polygon class="cls-13" points="373.41 333.82 381.35 339.78 253.76 372.16 253.76 360.27 373.41 333.82"/><polygon class="cls-2" points="126.83 335.81 237.89 361.59 245.82 522.89 148.64 492.48 126.83 335.81"/><polygon class="cls-2" points="386.64 335.81 268.3 362.91 274.91 524.88 384.65 491.16 386.64 335.81"/><path class="cls-2" d="M233.92,361.59s19.39,11.91,39.77,0l4,164.61H245.83Z"/><path class="cls-9" d="M233.92,361.59s19.39,11.91,39.77,0l4,164.61H245.83Z"/><path class="cls-14" d="M144.68,333.82v4.63l109.08,21.82S198.23,339.77,144.68,333.82Z"/><path class="cls-14" d="M371.43,331.18v4.63L253.76,360.27S317.87,337.13,371.43,331.18Z"/><path class="cls-7" d="M407.59,462.77l-3.45.93S381.67,444,353,473.83s9.53,44.37,9.53,44.37,39.33,1.69,51.68-5.62a54.48,54.48,0,0,1,17.21-6.66,17.59,17.59,0,0,0,9.64-5.44h0a23,23,0,0,0,5.76-19h0a23,23,0,0,0-16.92-18.84h0A43.6,43.6,0,0,0,407.59,462.77Z"/><path class="cls-7" d="M116.26,466s26.44-23.8,58.83,15.87S150,522.25,150,522.25s-31.1,7.25-43-18.53S116.26,466,116.26,466Z"/><path class="cls-9" d="M410.39,461.16s30.74,9,24.15,44.44l18.58-2,3.92-18-7.93-25.12-15.21-6Z"/><path class="cls-12" d="M411.05,461.16s30.74,9,24.15,44.44l18.58-2,3.92-18-7.93-25.12-15.21-6Z"/><path class="cls-9" d="M331.77,199a74.45,74.45,0,0,1-2.11,17.59,25.69,25.69,0,0,1-14.93,2.19c-8.76-1.34-16.5-6.55-22.9-12.67s-11.78-13.24-18-19.6c-5.6-5.77-12.51-11.16-20.54-11.39-7.29-.22-13.94,3.86-21,5.79-7.36,2-22.2-3.51-25.79,2.74-2.11,3.67-1.37,11.74-2.61,16.08a62.75,62.75,0,0,1-5.68,13.62c-1.79,3.14-4.41,6.47-8,6.44a8.15,8.15,0,0,1-3.95-1.26,74,74,0,1,1,145.46-19.55Z"/><path class="cls-15" d="M232.36,179.56c7-1.93,13.7-6,21-5.8,8,.24,14.95,5.63,20.55,11.4,6.17,6.35,11.54,13.47,17.95,19.6s14.14,11.32,22.9,12.67,18.62-1.94,23.17-9.53c6.47-10.83.32-24.55.46-37.17.09-8,2.78-15.8,2.48-23.77-.26-6.67-2.6-13.11-5.15-19.25-1.25-3-2.61-6.07-5-8.28-6.31-5.84-16.51-3.33-24.62-6.21-10.47-3.73-15.36-15.33-21.41-24.65-2.34-3.58-6.55-7.39-10.35-5.43-4.48,2.31-3.26,10.21-7.79,12.43-2.74,1.34-6.09-.35-8-2.69s-3.08-5.29-5-7.65a14.52,14.52,0,0,0-14.3-4.88,4.89,4.89,0,0,0-2.71,1.41c-1.44,1.72-.54,4.27-.44,6.51.35,7.53-8.68,11.72-16.18,12.51s-16.28.9-20.75,7c-2.38,3.21-2.87,7.39-4.47,11-3.7,8.49-12.65,13.11-20.52,18s-16,12-15.9,21.23c.07,8.89,7.75,16.09,9.11,24.86.71,4.66-.4,9.48.49,14.11,1.64,8.49,9.43,14.19,16.61,19,1.79,1.19,3.7,2.44,5.84,2.45,3.57,0,6.25-3.3,8-6.44A63.38,63.38,0,0,0,204,198.42c1.24-4.36.5-12.43,2.61-16.09C210.16,176.05,225,181.58,232.36,179.56Z"/></svg>