<svg id="Layer_1" data-name="Layer 1" xmlns="http://www.w3.org/2000/svg" xmlns:xlink="http://www.w3.org/1999/xlink" viewBox="0 0 600 600"><defs><style>.cls-1,.cls-2{fill:#fdc812;}.cls-1{opacity:0.2;}.cls-1,.cls-10,.cls-13,.cls-19,.cls-20,.cls-5,.cls-7{isolation:isolate;}.cls-3,.cls-5{opacity:0.1;}.cls-4{fill:#4b4b4b;}.cls-6,.cls-8{fill:none;stroke:#535461;stroke-miterlimit:10;}.cls-6{stroke-width:0.53px;}.cls-7{fill:#f5f5f5;}.cls-10,.cls-19,.cls-7{opacity:0.2;}.cls-8{stroke-width:1.05px;}.cls-9{fill:#a8a8a8;}.cls-11{fill:#ffd037;}.cls-12{fill:#dc9ba3;}.cls-13,.cls-18,.cls-20{opacity:0.05;}.cls-14{fill:#ffd2d9;}.cls-15{fill:#e9e9ef;}.cls-16{fill:#cedad5;}.cls-17{fill:#844f6e;}.cls-19{fill:#fff;}.cls-20{fill:lime;}.cls-21{fill:url(#linear-gradient);}.cls-22{fill:#5f5d7e;}.cls-23{fill:#fdc2cc;}.cls-24{fill:#c4c8e2;}.cls-25{fill:#d39999;}.cls-26{fill:#4c4c56;}.cls-27{fill:#865a61;}</style><linearGradient id="linear-gradient" x1="1267" y1="-503.56" x2="1345.77" y2="-503.56" gradientTransform="translate(1560.12 -77.45) rotate(180)" gradientUnits="userSpaceOnUse"><stop offset="0" stop-color="gray" stop-opacity="0.25"/><stop offset="0.54" stop-color="gray" stop-opacity="0.12"/><stop offset="1" stop-color="gray" stop-opacity="0.1"/></linearGradient></defs><title>relaxing-icon</title><path class="cls-1" d="M599.35,267c-3.65,14.79-22.39,22.2-32.9,33.23-19.78,20.79-12.08,51.15.48,75.47,4.2,8.14,9,16.76,7.19,25.49-2.17,10.68-13.7,18.49-25.81,22.63-22.06,7.54-48.48,5.74-68.77-4.69-17.52-9-30.07-23.64-47.9-32.26-29.83-14.39-67.8-8.93-100.19,1-22.91,7-48,16.14-70.74,8.81-16-5.15-27.1-17.71-33.14-31-2.91-6.42-5-13.38-10.59-18.47-3.31-3-7.62-5.18-12-7-40.39-16.55-91.4-7.69-130.61-26C47.85,301.78,30.89,278.4,23.38,254S16.75,204.08,18.65,179c1.36-17.86,3.79-36.88,17.58-50.66,14.6-14.56,39.64-20,62.28-17.21s43.15,12.64,61.21,24.26c22.58,14.53,43.48,32.61,71.18,38.5,18.86,4,38.7,1.81,58.16,1,32.52-1.27,65.06,1.57,97.4,4.64,15.76,1.51,31.57,3.09,47.2,5.38q5.25.76,10.5,1.65,2.64.45,5.25.93c1.37.25,2.73.53,4.09.78q3.22.61,6.42,1.31,9.18,2,18.2,4.49c20.87,5.89,37.61,16.58,57.32,24,12.85,4.87,26.86,6.22,39,12.42C589.44,238.17,603.19,251.46,599.35,267Z"/><circle class="cls-2" cx="493.74" cy="292.1" r="53.7" transform="translate(-61.94 434.68) rotate(-45)"/><circle class="cls-2" cx="436.63" cy="277.43" r="53.7"/><circle class="cls-2" cx="373.77" cy="277.96" r="53.7"/><circle class="cls-2" cx="353.33" cy="292.1" r="53.7"/><circle class="cls-2" cx="318.75" cy="296.82" r="53.7"/><circle class="cls-2" cx="304.61" cy="254.38" r="53.7"/><circle class="cls-2" cx="320.32" cy="205.13" r="53.7"/><circle class="cls-2" cx="350.19" cy="205.13" r="53.7"/><circle class="cls-2" cx="367.48" cy="183.13" r="53.7"/><circle class="cls-2" cx="411.49" cy="207.23" r="53.7"/><circle class="cls-2" cx="514.18" cy="254.38" r="53.7"/><circle class="cls-2" cx="483.26" cy="227.66" r="53.7"/><circle class="cls-2" cx="463.36" cy="200.94" r="53.7"/><circle class="cls-2" cx="425.63" cy="160.6" r="53.7"/><circle class="cls-2" cx="495.84" cy="205.13" r="53.7" transform="translate(0.18 410.69) rotate(-45)"/><g class="cls-3"><circle cx="493.74" cy="292.1" r="53.7" transform="translate(-61.94 434.68) rotate(-45)"/><circle cx="436.63" cy="277.43" r="53.7"/><circle cx="373.77" cy="277.96" r="53.7"/><circle cx="353.33" cy="292.1" r="53.7"/><circle cx="318.75" cy="296.82" r="53.7"/><circle cx="304.61" cy="254.38" r="53.7"/><circle cx="320.32" cy="205.13" r="53.7"/><circle cx="350.19" cy="205.13" r="53.7"/><circle cx="367.48" cy="183.13" r="53.7"/><circle cx="411.49" cy="207.23" r="53.7"/><circle cx="514.18" cy="254.38" r="53.7"/><circle cx="483.26" cy="227.66" r="53.7"/><circle cx="463.36" cy="200.94" r="53.7"/><circle cx="425.63" cy="160.6" r="53.7"/><circle cx="495.84" cy="205.13" r="53.7" transform="translate(0.18 410.69) rotate(-45)"/></g><path class="cls-4" d="M467.22,386.21s32.83-27.59,16.59-66.88l-16.24-6.09L449.94,367.5Z"/><path class="cls-5" d="M469,311.37l3.89,1.46L455.55,366.1l15.1,16.34c-1.25,1.25-2,1.9-2,1.9l-17.28-18.71Z"/><ellipse class="cls-1" cx="304.4" cy="456.22" rx="292.33" ry="48.94"/><path class="cls-2" d="M529.41,380.42A25.5,25.5,0,0,0,524.76,407c6,15.85-10.34,42.2-10.34,42.2l.53-.09a31.09,31.09,0,0,0,20.63-47.59C531,394.55,527.3,386.42,529.41,380.42Z"/><path class="cls-6" d="M529.41,380.42s-6,13.09,0,23.77,1.05,40.65-15,45"/><path class="cls-2" d="M548.43,423.62s-12.19-1.94-13.3,9S511.69,445,511.69,445l.42.28c18.44,12.08,36,7.71,33.4-8.36C544.52,431,544.6,425,548.43,423.62Z"/><path class="cls-7" d="M548.43,423.62s-12.19-1.94-13.3,9S511.69,445,511.69,445l.42.28c18.44,12.08,36,7.71,33.4-8.36C544.52,431,544.6,425,548.43,423.62Z"/><path class="cls-6" d="M548.43,423.62s-9.46,2.1-8.69,10.68-14,18.91-28,10.73"/><path class="cls-4" d="M319,328.74l4.27,17.07s30.13,3.93,50.23,1.46a26,26,0,0,0,10-3.61c1.7-1,4.38-1.44,8,1.3,6.27,4.73,37.05,42.55,32.07,81.79a13.56,13.56,0,0,1-11.65,11.68h0a41.09,41.09,0,0,0-17.16,6.49l-15.23,10.15,156.19-3.42L519.51,432s-11.1-9.39-19.63-10.24c-2.49-.25-4.54-2.53-6.2-5.64a373.76,373.76,0,0,0-34-51.66c-9.19-11.9-16.89-24.44-16.17-32.32,1.7-18.78,0-49.51,0-49.51l-32.44-4.26s4.27,41-35,51.21S319,328.74,319,328.74Z"/><g class="cls-3"><path d="M345.41,336.42s17.92,11.1,57.19.85,35-51.21,35-51.21l6.18.81c-.12-2.63-.21-4.2-.21-4.2l-32.43-4.27s4.27,41-35,51.21-57.19-.85-57.19-.85l4.26,17.07s11.52,1.5,25.06,2.07Z"/><path d="M421.22,452.6a41,41,0,0,1,17.16-6.49h0A13.53,13.53,0,0,0,450,434.47c5-39.23-25.78-77.12-32-81.83-6.83-5.12-10.24.85-10.24.85a55.85,55.85,0,0,1-7.36,1.4c11.07,14.71,26.89,42.92,23.19,71.9a13.56,13.56,0,0,1-11.64,11.64h0a40.72,40.72,0,0,0-17.16,6.49l-15.24,10.14,39.28-.86Z"/></g><path class="cls-8" d="M345.09,411.55s-3.26-11.07.61-19.22a17.47,17.47,0,0,0,1.41-11,28.88,28.88,0,0,0-1.57-5.15"/><path class="cls-2" d="M348,371.05c0,1.35-2.45,5.29-2.45,5.29s-2.45-3.94-2.45-5.29a2.46,2.46,0,1,1,4.92,0h0Z"/><path class="cls-2" d="M352,378.56c-.73,1.14-4.94,3.11-4.94,3.11s.08-4.64.82-5.78a2.46,2.46,0,0,1,4.2,2.55.57.57,0,0,1-.08.13Z"/><path class="cls-2" d="M351.86,391.4c-1.21.61-5.83.19-5.83.19s2.41-4,3.62-4.58a2.46,2.46,0,0,1,2.21,4.4Z"/><path class="cls-2" d="M349.54,401.1c-1.09.81-5.71,1.17-5.71,1.17s1.7-4.31,2.79-5.12a2.46,2.46,0,0,1,2.92,4Z"/><path class="cls-2" d="M341.94,382c1,.94,5.51,1.92,5.51,1.92s-1.11-4.5-2.1-5.45a2.46,2.46,0,0,0-3.43,3.53Z"/><path class="cls-2" d="M339.37,393.3c1.21.61,5.83.19,5.83.19s-2.41-4-3.62-4.57a2.46,2.46,0,0,0-2.21,4.39h0Z"/><path class="cls-2" d="M338.38,404.7c1.09.8,5.71,1.17,5.71,1.17s-1.7-4.32-2.79-5.12a2.46,2.46,0,0,0-2.92,3.95Z"/><path class="cls-9" d="M338,410.47s6-1.19,7.55-2.79,8.74-4.37,9.54-2.38,10.73,8.74,4,9.93-15.89,1.58-17.86.8S338,410.47,338,410.47Z"/><path class="cls-10" d="M359.06,414.51c-6.76,1.2-15.9,1.58-17.86.8-1.51-.61-2.56-3.52-3-4.87l-.2,0s1.19,4.77,3.18,5.57,11.12.4,17.86-.8c1.95-.34,2.5-1.15,2.29-2.17C361.19,413.73,360.51,414.25,359.06,414.51Z"/><path class="cls-9" d="M436.84,447.85s18.08-3.62,22.91-8.44,26.53-13.27,28.94-7.24,32.57,26.53,12.08,30.15-48.23,4.82-54.26,2.41S436.84,447.85,436.84,447.85Z"/><path class="cls-10" d="M500.75,460.08c-20.49,3.62-48.23,4.82-54.26,2.41-4.59-1.84-7.79-10.66-9.05-14.77l-.6.13s3.62,14.47,9.64,16.88,33.77,1.21,54.27-2.41c5.92-1.05,7.61-3.5,7-6.6C507.22,457.75,505.15,459.31,500.75,460.08Z"/><path class="cls-2" d="M559.25,345.07a11.4,11.4,0,0,1-2,6.05,11.55,11.55,0,0,1-2-6c0-3.33.87-6,1.95-6.05S559.24,341.73,559.25,345.07Z"/><path class="cls-2" d="M411,342.14a11.45,11.45,0,0,1-2,6,11.44,11.44,0,0,1-2-6c0-3.34.88-6,2-6S411,338.8,411,342.14Z"/><path class="cls-2" d="M572.58,401.67a11.41,11.41,0,0,1,2,6A11.54,11.54,0,0,1,569.4,404c-2-2.7-2.84-5.41-2-6S570.62,399,572.58,401.67Z"/><path class="cls-2" d="M509.83,370a11.45,11.45,0,0,1-2,6,11.44,11.44,0,0,1-2-6c0-3.34.88-6,2-6S509.83,366.71,509.83,370Z"/><path class="cls-2" d="M473.12,350a11.44,11.44,0,0,1-2,6,11.45,11.45,0,0,1-2-6c0-3.33.88-6,2-6S473.12,346.64,473.12,350Z"/><path class="cls-2" d="M450.35,362.21a11.44,11.44,0,0,1,1.3,6.21,11.38,11.38,0,0,1-4.73-4.26c-1.66-2.9-2.24-5.68-1.3-6.22S448.69,359.31,450.35,362.21Z"/><path class="cls-2" d="M433.33,417.7a11.45,11.45,0,0,1-5.75,2.7,11.47,11.47,0,0,1,3.07-5.57c2.43-2.28,5-3.48,5.75-2.7S435.77,415.42,433.33,417.7Z"/><path class="cls-5" d="M433.33,417.7a11.45,11.45,0,0,1-5.75,2.7,11.47,11.47,0,0,1,3.07-5.57c2.43-2.28,5-3.48,5.75-2.7S435.77,415.42,433.33,417.7Z"/><path class="cls-2" d="M469.06,414.27a11.4,11.4,0,0,1-5.75,2.7,11.46,11.46,0,0,1,3.06-5.56c2.43-2.28,5-3.49,5.75-2.7S471.49,412,469.06,414.27Z"/><path class="cls-5" d="M469.06,414.27a11.4,11.4,0,0,1-5.75,2.7,11.46,11.46,0,0,1,3.06-5.56c2.43-2.28,5-3.49,5.75-2.7S471.49,412,469.06,414.27Z"/><path class="cls-2" d="M475.91,450.49a11.49,11.49,0,0,1-5.75,2.7,11.37,11.37,0,0,1,3.07-5.58c2.43-2.28,5-3.49,5.75-2.7S478.35,448.2,475.91,450.49Z"/><path class="cls-5" d="M475.91,450.49a11.49,11.49,0,0,1-5.75,2.7,11.37,11.37,0,0,1,3.07-5.58c2.43-2.28,5-3.49,5.75-2.7S478.35,448.2,475.91,450.49Z"/><path class="cls-2" d="M47.52,392.59C55.57,404.48,53,447,53,447s-40.47-13.4-48.52-25.28a26,26,0,1,1,43-29.16Z"/><path class="cls-5" d="M47.52,392.59C55.57,404.48,53,447,53,447s-40.47-13.4-48.52-25.28a26,26,0,1,1,43-29.16Z"/><path class="cls-6" d="M11.57,385.68s30.33,23.42,41.59,61.4"/><path class="cls-2" d="M60.8,414.81s-21.54-3.67-6.83,32c0,0,15-5.71,16.13-19.9a11.33,11.33,0,0,0-9-12Z"/><path class="cls-6" d="M61.11,414.78s4.11,19.73-7.12,32"/><path class="cls-9" d="M529.82,447.92s9-1.79,11.38-4.17,13.19-6.54,14.39-3.57,16.18,13.09,6,14.87-24,2.38-27,1.19S529.82,447.92,529.82,447.92Z"/><path class="cls-10" d="M561.6,454c-10.19,1.79-24,2.38-27,1.2-2.28-.91-3.86-5.26-4.49-7.29l-.3.06s1.79,7.14,4.79,8.33,16.78.6,27-1.19c2.94-.52,3.78-1.72,3.46-3.26C564.79,452.8,563.77,453.57,561.6,454Z"/><circle class="cls-2" cx="493.74" cy="280.05" r="53.7" transform="translate(-53.41 431.16) rotate(-45)"/><circle class="cls-2" cx="436.63" cy="265.38" r="53.7"/><circle class="cls-2" cx="373.77" cy="265.91" r="53.7"/><circle class="cls-2" cx="353.33" cy="280.05" r="53.7"/><circle class="cls-2" cx="318.75" cy="284.77" r="53.7"/><circle class="cls-2" cx="304.61" cy="242.33" r="53.7"/><circle class="cls-2" cx="320.32" cy="193.08" r="53.7"/><circle class="cls-2" cx="350.19" cy="193.08" r="53.7"/><circle class="cls-2" cx="367.48" cy="171.08" r="53.7"/><circle class="cls-2" cx="411.49" cy="195.18" r="53.7"/><circle class="cls-2" cx="514.18" cy="242.33" r="53.7"/><circle class="cls-2" cx="483.26" cy="215.61" r="53.7"/><circle class="cls-2" cx="463.36" cy="188.89" r="53.7"/><circle class="cls-2" cx="425.63" cy="148.55" r="53.7"/><circle class="cls-2" cx="495.84" cy="193.08" r="53.7" transform="translate(8.7 407.16) rotate(-45)"/><path class="cls-5" d="M547.21,201.49s-50-23.72-80.28,18.32"/><path class="cls-5" d="M415.84,153.44s-55.32-1.67-66.18,49"/><path class="cls-5" d="M347.07,263.31s-50-23.72-80.27,18.3"/><path class="cls-2" d="M128.19,397.18s2.88,3.77-1.34,9.45-7.69,10.51-6.3,14.06c0,0,6.36-10.58,11.56-10.73S133.88,403.54,128.19,397.18Z"/><path class="cls-5" d="M128.19,397.18a4.66,4.66,0,0,1,.59,1.18c5.05,5.94,7.74,11.48,2.88,11.62-4.52.13-10,8.22-11.25,10.26a3.71,3.71,0,0,0,.16.47s6.36-10.58,11.55-10.72S133.88,403.54,128.19,397.18Z"/><path class="cls-11" d="M133.55,402c0,1.33-.15,2.41-.33,2.41s-.33-1-.33-2.41.18-.7.37-.7S133.55,400.66,133.55,402Z"/><path class="cls-11" d="M135.39,403.57c-1.17.64-2.19,1-2.27.86s.79-.81,1.95-1.45.71-.17.8,0S136.56,403,135.39,403.57Z"/><path class="cls-2" d="M112.94,397.18s-2.88,3.77,1.34,9.45,7.69,10.51,6.3,14.06c0,0-6.36-10.58-11.56-10.73S107.24,403.54,112.94,397.18Z"/><path class="cls-5" d="M112.94,397.18a4.66,4.66,0,0,0-.59,1.18c-5,5.94-7.74,11.48-2.88,11.62,4.52.13,10,8.22,11.25,10.26,0,.16-.1.32-.15.47S114.2,410.13,109,410,107.24,403.54,112.94,397.18Z"/><path class="cls-11" d="M107.58,402c0,1.33.15,2.41.33,2.41s.33-1,.33-2.41-.18-.7-.37-.7S107.58,400.66,107.58,402Z"/><path class="cls-11" d="M105.74,403.57c1.16.64,2.18,1,2.27.86s-.79-.81-2-1.45-.7-.17-.79,0S104.59,403,105.74,403.57Z"/><path class="cls-9" d="M108.5,420.21s8.07-.24,10.51-2,12.41-3.8,13-1,12.12,13.81,3,13.88-21.16-1.42-23.59-2.9S108.5,420.21,108.5,420.21Z"/><path class="cls-10" d="M135.19,430.13c-9.11.07-21.16-1.42-23.59-2.9-1.85-1.12-2.59-5.16-2.83-7h-.27s.52,6.51,2.94,8,14.48,3,23.59,2.9c2.62,0,3.53-1,3.48-2.35C138.15,429.59,137.16,430.11,135.19,430.13Z"/><path class="cls-2" d="M62.8,472.16a6.16,6.16,0,0,0,2-3A2.69,2.69,0,0,0,63.4,466c-1.29-.49-2.67.4-3.72,1.31s-2.24,1.94-3.62,1.74a5.51,5.51,0,0,0,1.71-5.15,2.15,2.15,0,0,0-.48-1.05c-.72-.77-2-.44-2.87.17-2.74,1.92-3.5,5.63-3.51,9a16.77,16.77,0,0,1-.06-3.68,3.79,3.79,0,0,0-1.38-3.27,4.28,4.28,0,0,0-2.1-.5,4.41,4.41,0,0,0-3.44,1c-1,1.11-.77,3,.14,4.2a13.54,13.54,0,0,0,3.55,2.85A8,8,0,0,1,50.17,475a2.3,2.3,0,0,1,.18.43h7.7A21.56,21.56,0,0,0,62.8,472.16Z"/><path class="cls-2" d="M540.81,479.51a6.09,6.09,0,0,0,2-3,2.71,2.71,0,0,0-1.41-3.1c-1.29-.49-2.67.4-3.72,1.31s-2.25,1.94-3.62,1.75a5.52,5.52,0,0,0,1.7-5.16,2.18,2.18,0,0,0-.47-1c-.72-.77-2-.43-2.88.17-2.73,1.92-3.49,5.63-3.51,9a17.4,17.4,0,0,1,0-3.68,3.79,3.79,0,0,0-1.39-3.26,4.15,4.15,0,0,0-2.1-.5,4.35,4.35,0,0,0-3.43,1c-1.05,1.11-.78,3,.13,4.2a13.76,13.76,0,0,0,3.56,2.84,7.87,7.87,0,0,1,2.54,2.43,2.08,2.08,0,0,1,.19.43h7.7A21.31,21.31,0,0,0,540.81,479.51Z"/><path class="cls-12" d="M361.76,476.67s-.53,8.22.52,9.59c0,0-24.12,4.38-27.13,3s-1.65-3.56,0-4.38,9.87-3.84,11-9.59c0,0-3.56-1.65,7.95.52S361.76,476.67,361.76,476.67Z"/><path class="cls-13" d="M361.76,476.67s-.53,8.22.52,9.59c0,0-24.12,4.38-27.13,3s-1.65-3.56,0-4.38,9.87-3.84,11-9.59c0,0-3.56-1.65,7.95.52S361.76,476.67,361.76,476.67Z"/><path class="cls-14" d="M455.78,396.9s-3,4.93-1.1,14.53-4.93,9.59-4.93,9.59h-13.7l-4.66-12.08,6.58.52s4.38-1.1,2.47-11.24Z"/><path class="cls-14" d="M414.67,385.39c2.1,6.67,4.72,14.8,6.13,19.14l1,3.06,9-9.32s-.4-.92-1-2.21c-1.33-2.87-3.63-7.55-4.77-7.93,0,0,12.61-.83,16.45,2.19s2.74-8.23,2.74-8.23-7.4-.52-10.14-2.19-17.55-3.29-17.55-3.29S411.65,375.79,414.67,385.39Z"/><path class="cls-14" d="M332.43,466l1.91,14,4.94-.52s.3-.29.8-.74a33.07,33.07,0,0,1,6.74-4.73,8.06,8.06,0,0,1,2.87-.85l-5.48-8.23a29.48,29.48,0,0,1-4.09,1.21,19.92,19.92,0,0,1-4.41.53A7.85,7.85,0,0,1,332.43,466Z"/><path class="cls-15" d="M346.13,475.85c2.47,2.19,13.71-2.47,15.63,4.66l1.76-6.76L369,452.94l.75-2.86,4.52-.19,52-2.22,2.94-.13,1.58-.06-2.06-1L415,439.66s-4.93-.34-11.74-1.28h0c-10.32-1.41-24.95-4.2-33.2-9.13C356.3,421,351.1,448.71,351.1,448.71s-2.11,7-3.68,14a79.31,79.31,0,0,0-1.66,9.06C345.53,473.84,345.6,475.37,346.13,475.85Z"/><path class="cls-13" d="M346.13,475.85c2.47,2.19,13.71-2.47,15.63,4.66l1.76-6.76L369,452.94l.75-2.86,4.67-.29,50.2-3.09,3.1-.19,1-.06,1.23-.08-14.94-6.72s-4.93-.34-11.74-1.28h0c-10.32-1.41-24.95-4.2-33.21-9.13-13.7-8.23-18.91,19.46-18.91,19.46s-2.1,7-3.67,13.95a79.31,79.31,0,0,0-1.66,9.06C345.53,473.84,345.6,475.37,346.13,475.85Z"/><path class="cls-5" d="M340.12,466.09l4.8,5.63,1.91,2.24a8.29,8.29,0,0,1,2.87-.86l-5.49-8.22A30.48,30.48,0,0,1,340.12,466.09Z"/><path class="cls-15" d="M340.38,465.43l5.36,6.3,2.59,3v.83c3.15.73,13-1.35,15.19-1.83l.43-.09c6.3.27,29.6-13.43,29.6-13.43s25.5,4.38,37.83,3.28c6.88-.61,8.82-3.1,9.18-5.19a5.43,5.43,0,0,0-.41-3l-11-7.75-1.46-1.05-2.34-1.65-9.2-2.05h0c-8.05-1.77-18.77-4.08-20.94-4.24-3.56-.28-12.6,2.74-17.82,8.77a15.38,15.38,0,0,1-3,2.45l-.14.1c-1.47,1-3.27,2-5.25,3.05-6.64,3.5-15.48,7.25-21.57,9.72C343.24,464.34,340.38,465.43,340.38,465.43Z"/><path class="cls-5" d="M332.43,466l1.91,14,4.94-.52s.3-.29.8-.74a3,3,0,0,1-3.27-2.55s1.9-6.65-1.1-9.51A8,8,0,0,1,332.43,466Z"/><path class="cls-12" d="M336.25,476.12s2.74-9.59-3.57-10.69l-10.41,4.11-12.08.83s-3.16,5.14,1.89,10.91a15.51,15.51,0,0,0,11,5.2l13.17.6,4.13-8.48S336.81,479.41,336.25,476.12Z"/><path class="cls-5" d="M403.19,438.38c1.39.41,7.1,2.1,12.95,4.43h0a74.88,74.88,0,0,1,8.44,3.89q.85.48,1.62,1a14,14,0,0,1,3.53,3,25.86,25.86,0,0,0,10.83,7.69,5.43,5.43,0,0,0-.41-3l-11-7.75,1.57-.07-2.06-1,1.24-.08-14.94-6.72S410,439.32,403.19,438.38Z"/><path class="cls-5" d="M420.82,404.53l1,3.07,9-9.32s-.4-.93-1-2.22C428.7,398.47,423.24,402.71,420.82,404.53Z"/><path class="cls-16" d="M453.43,409.08a15.74,15.74,0,0,0,.71-2.86l11.78,4.09s8.09,6.17,7.27,19.6c0,0-10-3.68-14.39.68l-.09.78A35.64,35.64,0,0,1,449,451.76a27.74,27.74,0,0,0-5.32,7.35s-7.67-2.19-12.33-8.22-26.86-12.32-26.86-12.32,11.79.27,13.43-3.84,7.13-12.89,5.22-19.74a59.7,59.7,0,0,0-3-9s11.24-7.95,10.42-10.42l7.13,8.23,3.28,1.09a5.33,5.33,0,0,0-.39,2C440.42,414.3,450.93,416.09,453.43,409.08Z"/><path class="cls-5" d="M440.85,401.87c-.09-1-.23-2-.42-3.05l15.35-1.37s-1,.92-1.52,4.34c-1.8,1-3.91,2.51-6.15,2.51A12,12,0,0,1,440.85,401.87Z"/><circle class="cls-14" cx="447.97" cy="391.83" r="12.06"/><path class="cls-17" d="M456.88,395h-1.65v-4.66l-1.64-4.93s-8.23-3.84-12.08-3l-3,2.73s-.82-6.58,4.12-9.05,13.7-1.37,15.9.53,5.78,5.21,3,14.25l-.8,2.23S457.42,392,456.88,395Z"/><g class="cls-18"><path d="M435.57,401.31l-.9-.3-4.13-4.78a1.12,1.12,0,0,0,0-.7Z"/><path d="M441.34,410.15a6.22,6.22,0,0,1-3.77-6v-.46l.09.1,3.29,1.1a5.14,5.14,0,0,0-.39,2A6.42,6.42,0,0,0,441.34,410.15Z"/><path d="M409.37,438.34c6.87,2.39,16.17,6.16,19,9.82l.21.26c-7.53-5.16-24.06-9.86-24.06-9.86A41.33,41.33,0,0,0,409.37,438.34Z"/><path d="M440.7,456.38A28.34,28.34,0,0,1,446,449a35.69,35.69,0,0,0,9.66-20.39l.09-.77c4.39-4.39,14.39-.69,14.39-.69.53-8.52-2.54-14.11-4.84-17.06l.6.21s8.08,6.16,7.26,19.6c0,0-10-3.68-14.39.68l-.09.77a35.66,35.66,0,0,1-9.66,20.39,27.4,27.4,0,0,0-5.32,7.36,27.44,27.44,0,0,1-11.36-7.06A28.34,28.34,0,0,0,440.7,456.38Z"/></g><path class="cls-14" d="M443.72,424.31s13.13,18.91,20,24.4,8.77-2.47,8.77-2.47V428.7l-12.08-1.37-.13,1.66-.15,1.9L448.9,418.81s-11.24-10.14-13.43-4.11S443.72,424.31,443.72,424.31Z"/><path class="cls-5" d="M460.31,429a26.26,26.26,0,0,0,5.2,2.31c2.59.8,5.56,0,7-.55V428.7l-12.09-1.37Z"/><path class="cls-16" d="M472.64,426.92l.71,2.93s-4.29,2-7.85.91a31.38,31.38,0,0,1-6.83-3.29c-.53-.28,2.19-3.29,2.19-3.29Z"/><path class="cls-5" d="M393.69,460.36a22.14,22.14,0,0,0-6-3.3,21.37,21.37,0,0,1-5.78-3"/><path class="cls-19" d="M310.22,470.36l.45,0c-.65,1.66-1.58,5.7,2.27,10.12a15.49,15.49,0,0,0,11,5.19l12.77.6-.41.84-13.18-.6a15.5,15.5,0,0,1-11-5.2C307.07,475.51,310.22,470.36,310.22,470.36Z"/><path class="cls-20" d="M356.77,482.11c0,.17-.08.33-.13.49C356.37,482.45,356,482.16,356.77,482.11Z"/><path class="cls-19" d="M335.19,488.45C338,489.73,359.13,486,362,485.5a2.15,2.15,0,0,0,.33.76s-24.12,4.38-27.14,3c-1.57-.7-1.93-1.63-1.72-2.47A2.74,2.74,0,0,0,335.19,488.45Z"/><path class="cls-5" d="M440.31,386.06a18.59,18.59,0,0,1-7-7.46,1.71,1.71,0,0,1-.26-1.15c.2-.74,1.17-.87,1.87-1.19,1.31-.6,1.86-2.1,2.72-3.27a6.52,6.52,0,0,1,6.39-2.45c1.25.25,2.41.87,3.68,1,2.72.4,5.68-1.25,8.13,0a7,7,0,0,1,2.53,2.71c1.66,2.66,3.75,5.49,2.23,8.6a6.69,6.69,0,0,1-4.2,3.79c-1.95.52-4.2.08-6.19-.13a26,26,0,0,0-5-.38C443.34,386.38,442.14,387.17,440.31,386.06Z"/><path class="cls-17" d="M440.31,385.51a18.59,18.59,0,0,1-7-7.46,1.73,1.73,0,0,1-.26-1.15c.2-.74,1.17-.87,1.87-1.19,1.31-.6,1.86-2.11,2.72-3.27a6.54,6.54,0,0,1,6.39-2.46c1.25.26,2.41.88,3.68,1.06,2.72.39,5.68-1.25,8.13,0a7,7,0,0,1,2.53,2.71c1.66,2.66,3.75,5.49,2.23,8.6a6.69,6.69,0,0,1-4.2,3.79c-1.95.52-4.2.08-6.19-.13a26,26,0,0,0-5-.38C443.34,385.83,442.14,386.62,440.31,385.51Z"/><path class="cls-21" d="M214.35,450.82c0,5.65.31,9.38.31,9.38s8.07.46,7.85,7.94,31.38,9.07,31.38,9.07V477h0v-1.7a40.83,40.83,0,0,0,8,.64c-.12.58-.26,1.19-.4,1.74-.15.15-3.06,3.09-3,6.22-.05,1.58.66,3.19,3,4.54,6.67,3.9,27.45,1.73,27.45,1.73,3.15-2.07,4.2-3.83,4.14-5.29.1-2.16-2.05-3.68-4-4.66a7.07,7.07,0,0,0-4.91-.53,23.78,23.78,0,0,1-6.78.5,8.68,8.68,0,0,1,.35-1.33c2.13.6,3.6,1,3.6,1s11.08-5.9,6.46-15.42a7.82,7.82,0,0,0-3.15-3.12c3.56-6.13,6.94-13.34,6.6-18.2-.56-8.1-16.65-6.33-22.67-5.38L257,426.39c0-8.41.26-18.06-.52-20.15-1.39-3.63-.93-3.15-1.85-4.76l0-.06c-.53-.85-2-2.2-2.32-2a23.4,23.4,0,0,1,.06-5,14.31,14.31,0,0,0,9.87-13.54,14,14,0,0,0-1.58-6.47l.16-.07-1.52-7.49a1.22,1.22,0,0,1,.07-1c.15-.21.42-.27.63-.42a1.45,1.45,0,0,0,.24-1.76,2.26,2.26,0,0,0-.57-.73c-1.28-1.46-4-.94-5.68-1.16-2.27-.28-4.65-.7-6.8.42a11.1,11.1,0,0,1-1.45.76,6.44,6.44,0,0,1-2.1.2,20.3,20.3,0,0,0-3.81.34,6.16,6.16,0,0,0-5.09.84,11.22,11.22,0,0,0-5.33,10.25,21,21,0,0,0,.73,3.76l2.81,10.95a7,7,0,0,0,1.05,2.56,2.24,2.24,0,0,0,.42.45,2.44,2.44,0,0,0,2.24.86l.31-.11a15.66,15.66,0,0,1-.67,3.39c-3.21.93-7.88,4.2-13.48,13.66C215.57,422.22,214.38,440.08,214.35,450.82Zm45.85-7.69Z"/><rect class="cls-22" x="242.29" y="444.06" width="31.43" height="22.51"/><path class="cls-22" d="M265.92,439.15s23.41-4.91,24.07,4.91-13.82,29.41-13.82,29.41L263,470.8l3.79-15.16s-14.94-3.35-15.83-3.57S265.92,439.15,265.92,439.15Z"/><path class="cls-5" d="M265.92,439.15s23.41-4.91,24.07,4.91-13.82,29.41-13.82,29.41L263,470.8l3.79-15.16s-14.94-3.35-15.83-3.57S265.92,439.15,265.92,439.15Z"/><path class="cls-22" d="M278.18,476.16s-2.22,4.23-1.57,6-15.83-2.46-15.83-2.46,1.34-5.12,1.12-5.77S278.18,476.16,278.18,476.16Z"/><path class="cls-23" d="M263.69,447.18l1.64,1.48,1.05.95s5.35,8.7,12.26,3.35-5.36-9.35-7.81-9.56a3.08,3.08,0,0,1-2.32-1.67,7.88,7.88,0,0,1-.81-2.1Z"/><path class="cls-13" d="M263.69,447.18l1.64,1.48,1.05.95s5.35,8.7,12.26,3.35-5.36-9.35-7.81-9.56a3.08,3.08,0,0,1-2.32-1.67,7.88,7.88,0,0,1-.81-2.1Z"/><path class="cls-5" d="M278.18,476.16s-2.22,4.23-1.57,6-15.83-2.46-15.83-2.46,1.34-5.12,1.12-5.77S278.18,476.16,278.18,476.16Z"/><path class="cls-5" d="M263.69,447.18l1.64,1.48c0-2.86,1.9-5.49,3.19-7a7.65,7.65,0,0,1-.8-2.1Z"/><path class="cls-24" d="M253.88,424.66,269.27,440s-5.36,4.68-4.24,9.59l-11.15-12.49Z"/><path class="cls-5" d="M254,424.66v12.49l1.79,2,5.3,5.94,4.06,4.54c-1.11-4.9,4.24-9.58,4.24-9.58Z"/><path class="cls-25" d="M253.88,402.59s0,4.68-4,3.35-.89,52.83-.89,52.83,11.59-8.69,9.36-14.93a42,42,0,0,1-2.46-17.17C256.09,420.44,253.88,402.59,253.88,402.59Z"/><path class="cls-23" d="M253.66,390.11s-3.35,9.14,0,16.05-19.85-3.79-19.85-3.79,5.13-2.45,3.35-14.27Z"/><path class="cls-5" d="M255.67,431.8a64.37,64.37,0,0,0,0,7.35l5.3,5.94a45.83,45.83,0,0,0-2.63-4.82c-.83-1.28-1-6.37-1-12.18l-2-1.94C255.55,429.28,255.67,431.8,255.67,431.8Z"/><path class="cls-24" d="M252.2,401.38c-.25-1.17,1.68.6,2.3,1.62l0,.06c.89,1.57.44,1.11,1.78,4.68s-.44,29.41,1.58,32.57a49.56,49.56,0,0,1,3.56,6.91l-3.56-1.34s-1.34-4-2.23-4.91-.45-9.14-.45-9.14-.66-14.26-1.34-17.38C253.35,411.93,252.72,403.85,252.2,401.38Z"/><path class="cls-5" d="M252.2,401.38c-.25-1.17,1.68.6,2.3,1.62l0,.06c.89,1.57.44,1.11,1.78,4.68s-.44,29.41,1.58,32.57a49.56,49.56,0,0,1,3.56,6.91l-3.56-1.34s-1.34-4-2.23-4.91-.45-9.14-.45-9.14-.66-14.26-1.34-17.38C253.35,411.93,252.72,403.85,252.2,401.38Z"/><path class="cls-22" d="M247,457s35.22-1.34,39.68,8-6.24,15.17-6.24,15.17-14.93-4.69-18.28-4S247,474.38,247,474.38Z"/><path class="cls-23" d="M266.59,451.19s8-4.46,12.49-1.58,4,10.7-2.23,10.92a12.63,12.63,0,0,1-9.59-3.56Z"/><path class="cls-24" d="M241.4,398.36s-7.14-4.91-17.61,13.13-7.81,49-7.81,49,7.81.45,7.58,7.8,30.32,8.93,30.32,8.93-.44-73.12-3.56-75.12A47,47,0,0,0,241.4,398.36Z"/><path class="cls-5" d="M241.37,411.66a9.75,9.75,0,0,1,4,7.94c0,6.68.2,21.06.88,23.78.89,3.57,14.27,8.25,21.18,8,0,0,3.35,6.24-.67,7.58s-28.53,0-28.53,0-9.59-10.92-9.81-20.49-1.58-20.28,0-22.29C229.76,414.51,235.14,407.26,241.37,411.66Z"/><path class="cls-24" d="M241.81,410.76a9.75,9.75,0,0,1,4.08,8c0,6.67.2,21.06.88,23.78.9,3.57,14.27,8.25,21.18,8,0,0,3.35,6.24-.67,7.58s-28.53,0-28.53,0-9.59-10.92-9.81-20.49-1.57-20.29,0-22.29C230.2,413.64,235.59,406.37,241.81,410.76Z"/><path class="cls-26" d="M287.89,480.44c3.2,1.58,6.91,4.83-.12,9.76,0,0-20.06,2.23-26.53-1.79s0-10.48,0-10.48,14.8,3.94,21.9,2A6.79,6.79,0,0,1,287.89,480.44Z"/><path class="cls-5" d="M287.89,480.89c3.2,1.53,6.91,4.62-.12,9.34,0,0-20.06,2.13-26.53-1.71s0-10,0-10,14.8,3.76,21.9,1.93A7,7,0,0,1,287.89,480.89Z"/><path class="cls-5" d="M242.4,427.45s1.12,14,8.47,17.16"/><path class="cls-5" d="M253.44,391.67a28.85,28.85,0,0,0-1.32,6c-1.41.47-3.47-.72-5-.72-4.08,0-5.25-4.57-7.8-7.35,0-1.24-2.1,1.65-2.34.11Z"/><path class="cls-23" d="M233.81,382.75a14,14,0,0,0,.43,3.46l0,.17a14.08,14.08,0,1,0-.48-3.63Z"/><path class="cls-5" d="M223.79,411.73a53.09,53.09,0,0,1,5-7.29,56.56,56.56,0,0,0-4.1,6.18c-10.48,18.06-7.8,49-7.8,49s7.8.44,7.58,7.8c-.2,6.6,24.38,8.53,29.42,8.86v1.17s-30.54-1.58-30.32-8.93-7.58-7.8-7.58-7.8S213.33,429.79,223.79,411.73Z"/><path class="cls-5" d="M235.59,366.71a5.88,5.88,0,0,1,4.92-.82,19.69,19.69,0,0,1,3.68-.34,5.87,5.87,0,0,0,2-.19,11.66,11.66,0,0,0,1.4-.74c2.08-1.11,4.38-.69,6.57-.41,1.78.23,4.79-.41,5.82,1.62a1.45,1.45,0,0,1-.24,1.74c-.2.15-.46.2-.61.41a1.28,1.28,0,0,0-.07,1l1.47,7.35a5.49,5.49,0,0,1-4.37.2A12.06,12.06,0,0,1,255,376c-1.09.71-2.23.17-3.56.45a4.1,4.1,0,0,0-2,1.32,11.68,11.68,0,0,0-3,5.93c-.15.83-.34,1.86-1.15,2.1a4.88,4.88,0,0,1-.93.09c-1.46.19-2.06,1.92-3,3.06-1.15,1.39-3.2,2.29-3.33,4.09a2.69,2.69,0,0,1-.19,1.36,1.14,1.14,0,0,1-.71.44,2.4,2.4,0,0,1-2.34-1.05,7.16,7.16,0,0,1-1-2.52l-2.71-10.77a21.83,21.83,0,0,1-.71-3.67A11.1,11.1,0,0,1,235.59,366.71Z"/><path class="cls-27" d="M235.39,366.51a5.88,5.88,0,0,1,4.92-.82,19.66,19.66,0,0,1,3.67-.34,5.91,5.91,0,0,0,2-.19,12.48,12.48,0,0,0,1.4-.74c2.07-1.11,4.37-.69,6.56-.41,1.78.23,4.79-.41,5.82,1.63a1.44,1.44,0,0,1-.23,1.73c-.2.15-.46.2-.61.41a1.23,1.23,0,0,0-.07,1l1.47,7.35a5.52,5.52,0,0,1-4.38.2,11.89,11.89,0,0,1-1.15-.52c-1.1.71-2.23.17-3.56.46a4,4,0,0,0-2,1.31,11.76,11.76,0,0,0-3,5.93c-.15.83-.34,1.86-1.15,2.1a4.81,4.81,0,0,1-.93.09c-1.46.19-2.06,1.92-3,3.06-1.14,1.39-3.2,2.29-3.32,4.09a2.69,2.69,0,0,1-.19,1.36,1.16,1.16,0,0,1-.72.44,2.42,2.42,0,0,1-2.34-1.05,7,7,0,0,1-1-2.52l-2.72-10.76a22.14,22.14,0,0,1-.71-3.68A11.08,11.08,0,0,1,235.39,366.51Z"/></svg>